<?xml version="1.0" encoding="utf-8"?>
<!-- Generator: Adobe Illustrator 27.7.0, SVG Export Plug-In . SVG Version: 6.00 Build 0)  -->
<svg version="1.1" id="Layer_1" xmlns="http://www.w3.org/2000/svg" xmlns:xlink="http://www.w3.org/1999/xlink" x="0px" y="0px"
	 viewBox="0 0 253.7 81.5" style="enable-background:new 0 0 253.7 81.5;" xml:space="preserve">
<style type="text/css">
	.st0{fill:none;stroke:#88A746;stroke-width:7;}
	.st1{fill:#545C43;}
	.st2{fill:#88A746;}
</style>
<line class="st0" x1="208.9" y1="4.5" x2="247" y2="4.5"/>
<line class="st0" x1="1" y1="76" x2="208.9" y2="76.8"/>
<path class="st1" d="M21.6,0.9c3.9,0,7.5,0.3,10.8,0.8c3.3,0.4,6.1,1.3,8.4,2.7c2.4,1.3,4.2,3.2,5.5,5.7c1.3,2.4,2,5.5,2,9.3
	c0,2.2-0.2,4.3-0.7,6.2c-0.4,1.9-1.3,3.7-2.7,5.3c-1.3,1.6-3.1,3-5.4,4.1c-2.3,1.1-5.3,1.9-9,2.4L50.4,65h-11L19.9,38h-9.6v27h-9
	V0.9H21.6z M10.3,30.4h12c2.4,0,4.6-0.1,6.6-0.3c2-0.3,3.8-0.7,5.3-1.4c1.5-0.8,2.7-1.9,3.6-3.3c0.9-1.5,1.3-3.5,1.3-6
	s-0.4-4.4-1.3-5.9c-0.8-1.5-2-2.6-3.6-3.4C32.8,9.5,31,9,28.9,8.8c-2-0.3-4.3-0.4-6.6-0.4h-12V30.4z M80.1,16.6
	c3.8,0,7.1,0.8,10,2.3c2.9,1.5,5.2,3.5,7.1,6c1.9,2.5,3.3,5.4,4.1,8.6c0.9,3.2,1.2,6.5,1,9.9H65.6c0.1,3,0.7,5.5,1.6,7.6
	c1,2,2.2,3.6,3.6,4.8c1.5,1.2,3,2,4.7,2.5s3.2,0.8,4.7,0.8c2.7,0,4.9-0.4,6.7-1.2c1.9-0.8,3.3-2,4.4-3.5l7.8,2.3
	c-1.7,2.8-4.2,5.1-7.4,6.9c-3.2,1.7-7,2.6-11.5,2.6c-3.7,0-7-0.6-10-1.9C67.5,63,65,61.2,63,59c-2-2.2-3.5-4.9-4.5-7.9
	c-1-3-1.5-6.3-1.5-9.8c0-3.8,0.6-7.2,1.7-10.2c1.2-3.1,2.8-5.7,4.9-7.8c2.1-2.2,4.6-3.8,7.4-5C73.8,17.2,76.9,16.6,80.1,16.6z
	 M93.8,37c0-1.7-0.3-3.3-1-4.9c-0.6-1.7-1.6-3.1-2.8-4.3c-1.2-1.3-2.6-2.3-4.2-3.1s-3.6-1.2-5.7-1.2c-1.8,0-3.5,0.3-5.2,0.8
	c-1.7,0.5-3.1,1.3-4.4,2.4c-1.3,1-2.4,2.4-3.3,4.1c-0.8,1.7-1.3,3.7-1.5,6.1H93.8z M117.8,17.4l2.1,7.2c1.3-2.2,3.2-4.1,5.7-5.7
	c2.4-1.5,5.7-2.3,9.7-2.3c2.9,0,5.3,0.4,7.3,1.3c2,0.9,3.7,2.1,4.9,3.7c1.3,1.6,2.2,3.5,2.7,5.8c0.6,2.2,0.9,4.7,0.9,7.4V65h-8.1
	V37.3c0-1.9-0.1-3.6-0.4-5.2c-0.2-1.7-0.7-3.1-1.4-4.4c-0.7-1.3-1.8-2.3-3.2-3c-1.3-0.8-3.2-1.2-5.5-1.2c-3.9,0-7,1.3-9.2,4
	c-2.2,2.6-3.4,6.5-3.4,11.6V65h-8.1V17.4H117.8z M166.3,17.4v-12h8.1v12h9.2v6.4h-9.2v27.9c0,1.2,0,2.2,0.1,3.1
	c0.1,0.8,0.3,1.4,0.6,1.8c0.4,0.4,0.9,0.8,1.5,1s1.5,0.3,2.7,0.3h4.3V65h-6c-2.3,0-4.2-0.2-5.7-0.5c-1.4-0.3-2.5-0.9-3.4-1.7
	c-0.8-0.9-1.4-2.1-1.7-3.6c-0.3-1.5-0.5-3.6-0.5-6V23.8h-8.1v-6.4H166.3z M194.1,53.1V1h8.1v50.8c0,2.4,0.3,4.1,0.8,4.9
	c0.5,0.8,1.9,1.2,4.1,1.2h1.8V65h-3.6c-2.3,0-4.2-0.2-5.7-0.5c-1.4-0.3-2.5-0.9-3.4-1.7c-0.8-0.9-1.4-2.1-1.7-3.6
	C194.3,57.6,194.1,55.6,194.1,53.1z M220.4,17.5l11.7,36.7l11.7-36.7h8.8l-16.9,49.6c-0.8,2.6-1.7,4.7-2.6,6.4
	c-0.8,1.7-1.9,3.1-3.1,4.1c-1.2,1-2.6,1.7-4.3,2.1c-1.7,0.4-3.9,0.7-6.6,0.7h-4.1v-7.1h3.3c1.7,0,3.1-0.1,4.2-0.3
	c1.1-0.1,2-0.5,2.7-1.1c0.8-0.6,1.4-1.4,1.8-2.5c0.5-1.1,1.1-2.6,1.6-4.4l-17.2-47.6H220.4z"/>
<path class="st2" d="M247,1l6,3.5L247,8l-6-3.5L247,1z"/>
</svg>
